<svg width="122" height="150" viewBox="0 0 122 150" fill="none" xmlns="http://www.w3.org/2000/svg">
<path d="M88.5 94.0938C88.5 95.5607 87.9172 96.9676 86.8799 98.0049C85.8426 99.0423 84.4357 99.625 82.9688 99.625H38.7188C37.2518 99.625 35.8449 99.0423 34.8076 98.0049C33.7703 96.9676 33.1875 95.5607 33.1875 94.0938C33.1875 92.6268 33.7703 91.2199 34.8076 90.1826C35.8449 89.1453 37.2518 88.5625 38.7188 88.5625H82.9688C84.4357 88.5625 85.8426 89.1453 86.8799 90.1826C87.9172 91.2199 88.5 92.6268 88.5 94.0938ZM82.9688 66.4375H38.7188C37.2518 66.4375 35.8449 67.0203 34.8076 68.0576C33.7703 69.0949 33.1875 70.5018 33.1875 71.9688C33.1875 73.4357 33.7703 74.8426 34.8076 75.8799C35.8449 76.9172 37.2518 77.5 38.7188 77.5H82.9688C84.4357 77.5 85.8426 76.9172 86.8799 75.8799C87.9172 74.8426 88.5 73.4357 88.5 71.9688C88.5 70.5018 87.9172 69.0949 86.8799 68.0576C85.8426 67.0203 84.4357 66.4375 82.9688 66.4375ZM121.688 22.1875V138.344C121.688 141.278 120.522 144.092 118.447 146.166C116.373 148.241 113.559 149.406 110.625 149.406H11.0625C8.12854 149.406 5.31475 148.241 3.24013 146.166C1.16551 144.092 0 141.278 0 138.344V22.1875C0 19.2535 1.16551 16.4398 3.24013 14.3651C5.31475 12.2905 8.12854 11.125 11.0625 11.125H36.1329C39.2408 7.64533 43.0486 4.86126 47.3069 2.95506C51.5653 1.04886 56.1782 0.0635071 60.8438 0.0635071C65.5093 0.0635071 70.1222 1.04886 74.3806 2.95506C78.6389 4.86126 82.4467 7.64533 85.5546 11.125H110.625C113.559 11.125 116.373 12.2905 118.447 14.3651C120.522 16.4398 121.688 19.2535 121.688 22.1875ZM38.7188 33.25H82.9688C82.9688 27.3821 80.6377 21.7545 76.4885 17.6053C72.3392 13.456 66.7117 11.125 60.8438 11.125C54.9758 11.125 49.3483 13.456 45.199 17.6053C41.0498 21.7545 38.7188 27.3821 38.7188 33.25ZM110.625 22.1875H92.1299C93.3881 25.7401 94.0311 29.4812 94.0312 33.25V38.7813C94.0312 40.2482 93.4485 41.6551 92.4112 42.6924C91.3739 43.7297 89.967 44.3125 88.5 44.3125H33.1875C31.7205 44.3125 30.3136 43.7297 29.2763 42.6924C28.239 41.6551 27.6562 40.2482 27.6562 38.7813V33.25C27.6564 29.4812 28.2994 25.7401 29.5576 22.1875H11.0625V138.344H110.625V22.1875Z" fill="#755ACB" fill-opacity="0.31"/>
</svg>
