<svg width="21" height="17" viewBox="0 0 21 17" fill="none" xmlns="http://www.w3.org/2000/svg">
<path d="M20.625 8.5C20.625 8.72378 20.5361 8.93839 20.3779 9.09662C20.2196 9.25486 20.005 9.34375 19.7812 9.34375H1.21875C0.994974 9.34375 0.780363 9.25486 0.622129 9.09662C0.463895 8.93839 0.375 8.72378 0.375 8.5C0.375 8.27622 0.463895 8.06161 0.622129 7.90338C0.780363 7.74515 0.994974 7.65625 1.21875 7.65625H19.7812C20.005 7.65625 20.2196 7.74515 20.3779 7.90338C20.5361 8.06161 20.625 8.27622 20.625 8.5ZM1.21875 2.59375H19.7812C20.005 2.59375 20.2196 2.50485 20.3779 2.34662C20.5361 2.18839 20.625 1.97378 20.625 1.75C20.625 1.52622 20.5361 1.31161 20.3779 1.15338C20.2196 0.995145 20.005 0.90625 19.7812 0.90625H1.21875C0.994974 0.90625 0.780363 0.995145 0.622129 1.15338C0.463895 1.31161 0.375 1.52622 0.375 1.75C0.375 1.97378 0.463895 2.18839 0.622129 2.34662C0.780363 2.50485 0.994974 2.59375 1.21875 2.59375ZM19.7812 14.4062H1.21875C0.994974 14.4062 0.780363 14.4951 0.622129 14.6534C0.463895 14.8116 0.375 15.0262 0.375 15.25C0.375 15.4738 0.463895 15.6884 0.622129 15.8466C0.780363 16.0049 0.994974 16.0938 1.21875 16.0938H19.7812C20.005 16.0938 20.2196 16.0049 20.3779 15.8466C20.5361 15.6884 20.625 15.4738 20.625 15.25C20.625 15.0262 20.5361 14.8116 20.3779 14.6534C20.2196 14.4951 20.005 14.4062 19.7812 14.4062Z" fill="white"/>
</svg>
