<svg width="26" height="26" viewBox="0 0 26 26" fill="none" xmlns="http://www.w3.org/2000/svg">
<path d="M23.0872 7.45164L18.5484 2.91383C18.3975 2.76289 18.2183 2.64316 18.0211 2.56148C17.824 2.47979 17.6126 2.43774 17.3992 2.43774C17.1858 2.43774 16.9744 2.47979 16.7772 2.56148C16.5801 2.64316 16.4009 2.76289 16.25 2.91383L3.72634 15.4375C3.57478 15.5878 3.45463 15.7668 3.37286 15.964C3.29108 16.1612 3.24933 16.3727 3.25001 16.5862V21.125C3.25001 21.556 3.42121 21.9693 3.72596 22.274C4.03071 22.5788 4.44403 22.75 4.87501 22.75H21.9375C22.153 22.75 22.3597 22.6644 22.512 22.512C22.6644 22.3597 22.75 22.153 22.75 21.9375C22.75 21.722 22.6644 21.5153 22.512 21.363C22.3597 21.2106 22.153 21.125 21.9375 21.125H11.7122L23.0872 9.75C23.2381 9.5991 23.3579 9.41994 23.4395 9.22276C23.5212 9.02559 23.5633 8.81425 23.5633 8.60082C23.5633 8.38739 23.5212 8.17605 23.4395 7.97887C23.3579 7.78169 23.2381 7.60254 23.0872 7.45164ZM13.8125 7.64867L15.5076 9.34375L6.90626 17.9451L5.21118 16.25L13.8125 7.64867ZM4.87501 21.125V18.2112L7.78884 21.125H4.87501ZM9.75001 20.7888L8.05595 19.0938L16.6563 10.4924L18.3513 12.1875L9.75001 20.7888ZM19.5 11.0388L14.9622 6.5L17.3997 4.0625L21.9375 8.60133L19.5 11.0388Z" fill="black"/>
</svg>
